<?xml version="1.0" encoding="utf-8"?>
<!-- Generator: Adobe Illustrator 23.0.0, SVG Export Plug-In . SVG Version: 6.00 Build 0)  -->
<svg version="1.1" id="Layer_1" xmlns="http://www.w3.org/2000/svg" xmlns:xlink="http://www.w3.org/1999/xlink" x="0px" y="0px"
	 viewBox="0 0 384 384" style="enable-background:new 0 0 384 384;" xml:space="preserve">
<style type="text/css">
	.st0{fill:#F04E45;}
</style>
<path class="st0" d="M202.5,104.8l60.6-30.3l14.3,28.6l-60.6,30.3L202.5,104.8z"/>
<path class="st0" d="M106.5,103.2l14.3-28.6l60.6,30.3l-14.3,28.6L106.5,103.2z"/>
<path class="st0" d="M192.1,223.9c-27.5,0-53.9,10-74.6,28.1l-12,10.6l21.1,24l12-10.6c14.8-13,33.8-20.1,53.4-20.1
	c19.7,0,38.7,7.1,53.4,20l12,10.6l21.1-24l-12-10.6C246,233.9,219.6,223.9,192.1,223.9z"/>
<path class="st0" d="M192,0C86.1,0,0,86.1,0,192s86.1,192,192,192c105.9,0,192-86.1,192-192S297.9,0,192,0z M192,352
	c-88.2,0-160-71.8-160-160S103.8,32,192,32s160,71.8,160,160S280.2,352,192,352z"/>
<path class="st0" d="M112,144h32v32h-32V144z"/>
<path class="st0" d="M240,144h32v32h-32V144z"/>
</svg>
