<?xml version="1.0" encoding="utf-8"?>
<!-- Generator: Adobe Illustrator 23.0.0, SVG Export Plug-In . SVG Version: 6.00 Build 0)  -->
<svg version="1.1" id="Layer_1" xmlns="http://www.w3.org/2000/svg" xmlns:xlink="http://www.w3.org/1999/xlink" x="0px" y="0px"
	 viewBox="0 0 384 384" style="enable-background:new 0 0 384 384;" xml:space="preserve">
<style type="text/css">
	.st0{fill:#21897E;}
</style>
<path class="st0" d="M192,304c44.1,0,80-35.9,80-80v-16h-32v16c0,26.5-21.5,48-48,48s-48-21.5-48-48v-16h-32v16
	C112,268.1,147.9,304,192,304z"/>
<path class="st0" d="M192,384c105.9,0,192-86.1,192-192S297.9,0,192,0S0,86.1,0,192S86.1,384,192,384z M192,32
	c88.2,0,160,71.8,160,160s-71.8,160-160,160S32,280.2,32,192S103.8,32,192,32z"/>
<path class="st0" d="M112,144h32v32h-32V144z"/>
<path class="st0" d="M240,144h32v32h-32V144z"/>
</svg>
