<?xml version="1.0" encoding="utf-8"?>
<!-- Generator: Adobe Illustrator 23.0.0, SVG Export Plug-In . SVG Version: 6.00 Build 0)  -->
<svg version="1.1" id="Layer_1" xmlns="http://www.w3.org/2000/svg" xmlns:xlink="http://www.w3.org/1999/xlink" x="0px" y="0px"
	 viewBox="0 0 384 384" style="enable-background:new 0 0 384 384;" xml:space="preserve">
<style type="text/css">
	.st0{fill:#2A1E5C;}
</style>
<path class="st0" d="M138.6,252l-12-10.6l-21.1,24l12,10.6c20.6,18,47,28,74.5,28c27.5,0,53.9-10,74.6-28.1l12-10.6l-21.1-24
	l-12,10.6c-14.8,13-33.7,20.1-53.4,20.1C172.3,272,153.3,264.9,138.6,252z"/>
<path class="st0" d="M192,0C137.1,0,85.4,23.3,48.9,64H0v144c0.8,9.4,2.9,18.6,5.1,27.6c0.6,2.6,1.3,5.2,2,7.8
	c2,7.6,4.6,15.1,8,23.1c1,2.4,2.1,4.8,3.3,7.4l0.7,1.5c0.9,1.8,1.8,3.7,2.7,5.5c0.9,1.7,1.8,3.4,2.8,5.1l1.1,2
	c17.2,29.8,42.2,54.6,73.1,71.9c1.8,1,3.7,2,5.6,3l6.4,3.1c1.2,0.6,2.4,1.2,2.9,1.4c2,0.9,4.1,1.8,6.1,2.6c4.9,2,10,3.8,15,5.4
	l1,0.3c2.3,0.7,4.6,1.4,7,1.9c1.3,0.4,2.7,0.7,4.2,1c2.3,0.6,4.6,1.2,6.2,1.4c2.5,0.6,5.1,1,7.1,1.3c2,0.4,4.1,0.6,5.6,0.8
	c0.8,0.1,1.6,0.2,2.5,0.3c1.8,0.3,3.6,0.5,5.4,0.6c2.8,0.3,5.6,0.4,8.5,0.6c3.3,0.2,6.6,0.2,9.9,0.2s6.7-0.1,10-0.3
	c2.8-0.2,5.6-0.3,8.5-0.6c1.8-0.2,3.5-0.3,5.3-0.6c0.8-0.1,1.4-0.2,1.9-0.2c2.1-0.3,4.2-0.6,5.7-0.8c2.5-0.4,5.1-0.9,6.9-1.3
	c2.3-0.4,4.6-1,7.2-1.6c1.3-0.3,2.6-0.6,3.9-1c2.4-0.6,4.7-1.3,7.7-2.2c5.2-1.6,10.4-3.5,15.1-5.4c2.1-0.8,4.2-1.7,5.5-2.4
	c1.2-0.5,2.4-1.1,3.1-1.4l7.2-3.5c1.7-0.9,3.4-1.8,5-2.7l1-0.6c30.2-17,55.2-41.7,72.5-71.8l0.9-1.7c1-1.7,1.9-3.4,2.8-5.2
	c0.9-1.7,1.7-3.4,2.5-5.2l1-2.2c1.1-2.3,2.2-4.7,3.2-7.1c3.4-8,6-15.5,8-23.1c0.7-2.5,1.4-5.2,1.9-7.7c2.8-11.6,4.6-23.6,5.1-35.7
	V64h-48.9C298.6,23.3,246.9,0,192,0z M192,32c35.1,0,68.6,11.4,96.1,32H95.9C123.4,43.4,156.9,32,192,32z M347.8,228.3
	c-0.5,2.3-1.1,4.6-1.7,6.8c-1.6,6.1-3.8,12.3-6.5,18.8c-0.9,2-1.8,4.1-2.7,6l-0.9,1.9c-0.7,1.4-1.4,2.9-2.1,4.3
	c-0.7,1.4-1.5,2.8-2.3,4.2l-0.9,1.6c-14.3,24.9-35.2,45.5-60.1,59.5l-0.8,0.4c-1.6,0.8-3.2,1.7-4.8,2.6l-5.9,2.8
	c-0.4,0.2-0.8,0.4-1.9,0.9c-1.5,0.7-3.1,1.4-5,2.1c-4,1.7-8.2,3.2-13,4.7c-1.8,0.5-3.6,1.1-5.4,1.5l-0.9,0.2
	c-0.8,0.2-1.7,0.4-2.6,0.6l-1.1,0.3c-1.4,0.4-2.9,0.8-5,1.1c-1.8,0.4-3.6,0.7-5.9,1.1c-1.5,0.3-3,0.5-4.6,0.7l-2.4,0.3
	c-1.3,0.2-2.5,0.3-3.7,0.4c-2.5,0.2-4.9,0.4-7.3,0.5c-5.3,0.3-11,0.3-16.2,0c-2.5-0.1-4.9-0.3-7.3-0.5c-1.2-0.1-2.5-0.2-3.8-0.5
	l-2.2-0.3c0,0,0,0-0.1,0c-1.6-0.2-3.1-0.4-5.1-0.8c-1.8-0.3-3.6-0.6-6.1-1.1c-1.4-0.2-2.9-0.6-4.3-1l-1.1-0.3
	c-0.9-0.2-1.8-0.4-2.6-0.7l-0.9-0.2c-1.8-0.4-3.6-1-5.8-1.6c-4.4-1.4-8.6-3-13-4.7c-1.6-0.6-3.1-1.3-5.3-2.3
	c-0.4-0.2-0.8-0.4-1.8-0.8l-5.3-2.6c-1.8-0.9-3.5-1.8-5.4-2.9c-25.2-14.2-46.1-34.8-60.2-59.4l-1-1.9c-0.8-1.4-1.5-2.7-2.3-4.2
	c-0.8-1.5-1.5-3-2.2-4.5l-0.7-1.4c-1-2.1-1.9-4.2-2.8-6.2c-2.8-6.6-4.9-12.7-6.6-18.8c-0.6-2.2-1.2-4.6-1.7-6.9
	c-1.4-6-2.5-12.1-3.2-18.3l143,15.9V168h32v58.9l143.6-23.9C351,211.5,349.8,220,347.8,228.3z M352,168l-0.2,2.4L240,189.1V136h-96
	v54.1L32,177.7V96h320V168z"/>
</svg>
