<?xml version="1.0" encoding="utf-8"?>
<!-- Generator: Adobe Illustrator 23.0.0, SVG Export Plug-In . SVG Version: 6.00 Build 0)  -->
<svg version="1.1" id="Layer_1" xmlns="http://www.w3.org/2000/svg" xmlns:xlink="http://www.w3.org/1999/xlink" x="0px" y="0px"
	 viewBox="0 0 384 384" style="enable-background:new 0 0 384 384;" xml:space="preserve">
<style type="text/css">
	.st0{fill:#00AAFF;}
</style>
<path class="st0" d="M99.6,105.8l-17.7,26.6l41.3,27.6l-41.3,27.6l17.7,26.6l81.3-54.2L99.6,105.8z"/>
<path class="st0" d="M284.4,105.8L203.2,160l81.3,54.2l17.7-26.6L260.8,160l41.3-27.6L284.4,105.8z"/>
<path class="st0" d="M245.4,236c-14.8,13-33.7,20.1-53.4,20.1s-38.7-7.1-53.4-20l-12-10.6l-21.1,24l12,10.6c20.5,18,47,28,74.5,28
	s54-10,74.6-28.1l12-10.6l-21.1-24L245.4,236z"/>
<path class="st0" d="M192,0C86.1,0,0,86.1,0,192s86.1,192,192,192s192-86.1,192-192S297.9,0,192,0z M192,352
	c-88.2,0-160-71.8-160-160S103.8,32,192,32s160,71.8,160,160S280.2,352,192,352z"/>
</svg>
